<svg viewBox="0 0 1024 1536" fill="none" xmlns="http://www.w3.org/2000/svg">
<g id="Vector 21 (Stroke)" filter="url(#filter0_d_98_9206)">
<path class="road-shadow" d="M410.112 4.23633C378.534 35.8999 364.923 68.6144 369.944 105.731C374.922 142.529 398.27 184.194 442.026 233.861L444.126 236.232L444.226 236.347L444.316 236.47C461.812 260.701 473.287 284.831 477.817 306.391C482.342 327.928 479.991 347.254 469.29 361.351C458.556 375.49 439.946 383.685 413.469 384.062C387.013 384.44 352.356 377.039 308.833 359.621C242.943 333.253 177.242 327.089 124.815 340.482C72.4776 353.853 33.4734 386.645 20.187 438.386C-9.39279 553.579 29.1245 641.181 88.6079 709.397C148.242 777.787 228.705 826.438 282.853 863.646L279.455 868.591C225.72 831.667 144.361 782.465 84.0864 713.341C23.6611 644.044 -15.8168 554.472 14.3755 436.894C28.3103 382.627 69.3059 348.471 123.33 334.669C177.264 320.89 244.286 327.328 311.062 354.051C354.196 371.313 388.023 378.424 413.383 378.062C438.723 377.701 455.261 369.907 464.51 357.723C473.792 345.496 476.26 328.163 471.945 307.625C467.641 287.142 456.644 263.82 439.533 240.097C394.242 189.153 369.294 145.679 363.999 106.535C358.663 67.0949 373.34 32.6108 405.863 0L410.112 4.23633Z" fill="white"/>
<path class="road-main" d="M410.112 4.23633C378.534 35.8999 364.923 68.6144 369.944 105.731C374.922 142.529 398.27 184.194 442.026 233.861L444.126 236.232L444.226 236.347L444.316 236.47C461.812 260.701 473.287 284.831 477.817 306.391C482.342 327.928 479.991 347.254 469.29 361.351C458.556 375.49 439.946 383.685 413.469 384.062C387.013 384.44 352.356 377.039 308.833 359.621C242.943 333.253 177.242 327.089 124.815 340.482C72.4776 353.853 33.4734 386.645 20.187 438.386C-9.39279 553.579 29.1245 641.181 88.6079 709.397C148.242 777.787 228.705 826.438 282.853 863.646L279.455 868.591C225.72 831.667 144.361 782.465 84.0864 713.341C23.6611 644.044 -15.8168 554.472 14.3755 436.894C28.3103 382.627 69.3059 348.471 123.33 334.669C177.264 320.89 244.286 327.328 311.062 354.051C354.196 371.313 388.023 378.424 413.383 378.062C438.723 377.701 455.261 369.907 464.51 357.723C473.792 345.496 476.26 328.163 471.945 307.625C467.641 287.142 456.644 263.82 439.533 240.097C394.242 189.153 369.294 145.679 363.999 106.535C358.663 67.0949 373.34 32.6108 405.863 0L410.112 4.23633Z" fill="white"/>
</g>
<defs>
<filter id="filter0_d_98_9206" x="0" y="0" width="484" height="876.591" filterUnits="userSpaceOnUse" color-interpolation-filters="sRGB">
<feFlood flood-opacity="0" result="BackgroundImageFix"/>
<feColorMatrix in="SourceAlpha" type="matrix" values="0 0 0 0 0 0 0 0 0 0 0 0 0 0 0 0 0 0 127 0" result="hardAlpha"/>
<feOffset dy="4"/>
<feGaussianBlur stdDeviation="2"/>
<feComposite in2="hardAlpha" operator="out"/>
<feColorMatrix type="matrix" values="0 0 0 0 0 0 0 0 0 0 0 0 0 0 0 0 0 0 0.25 0"/>
<feBlend mode="normal" in2="BackgroundImageFix" result="effect1_dropShadow_98_9206"/>
<feBlend mode="normal" in="SourceGraphic" in2="effect1_dropShadow_98_9206" result="shape"/>
</filter>
</defs>
</svg>
